# 
# Generated by Sweet Home 3D - Mon Jun 15 14:33:03 IST 2026
# http://www.sweethome3d.com/
# 
mtllib 1_floor_final.mtl
g ground_1
usemtl ground_1
v 5000.0 0.0 161.8429
v 5000.0 0.0 4579.343
v 5565.1875 0.0 4579.343
v 5565.1875 0.0 161.8429
vn 0.0 1.0 0.0
vn 0.0 0.0 0.0
f 1//1 2//1 3//1
f 1//1 3//1 4//1
v 547.68726 0.0 161.8429
v 547.68726 0.0 4579.343
f 5//1 6//1 2//1
f 5//1 2//1 1//1
g wall_1_2
usemtl wall_1_2
v 1782.2717 0.0 1350.7357
v 1782.2717 0.0 3110.7358
v 1786.0217 0.0 3106.9858
v 1786.0217 0.0 1350.7357
vn 0.0 -1.0 0.0
f 10//3 9//3 8//3
f 10//3 8//3 7//3
g wall_1_3
usemtl wall_1_2
v 1778.5217 0.0 1350.7357
v 1778.5217 0.0 3114.4858
f 7//3 8//3 12//3
f 7//3 12//3 11//3
g wall_1_4
usemtl wall_1_2
v 1786.0217 250.0 3106.9858
v 1782.2717 250.0 3110.7358
v 1786.0217 250.0 1350.7357
v 1782.2717 250.0 1350.7357
vn 0.70710677 0.0 0.70710677
vn 1.0 0.0 0.0
vn 0.0 0.0 -1.0
f 8//4 9//4 13//4 14//4
f 9//5 10//5 15//5 13//5
f 10//6 7//6 16//6 15//6
g wall_1_5
usemtl wall_1_2
v 1778.5217 250.0 3114.4858
v 1778.5217 250.0 1350.7357
vn -1.0 0.0 0.0
f 11//7 12//7 17//7 18//7
f 12//4 8//4 14//4 17//4
f 7//6 11//6 18//6 16//6
g wall_1_6
usemtl wall_1_2
f 16//1 14//1 13//1
f 16//1 13//1 15//1
g wall_1_7
usemtl wall_1_2
f 18//1 17//1 14//1
f 18//1 14//1 16//1
g wall_2_8
usemtl wall_1_2
v 3832.2717 0.0 3110.7358
v 3828.5217 0.0 3106.9858
f 20//3 19//3 8//3
f 20//3 8//3 9//3
g wall_2_9
usemtl wall_1_2
v 3836.0217 0.0 3114.4858
f 19//3 21//3 12//3
f 19//3 12//3 8//3
g wall_2_10
usemtl wall_1_2
v 3828.5217 250.0 3106.9858
v 3832.2717 250.0 3110.7358
vn -0.70710677 0.0 -0.70710677
vn 0.70710677 0.0 -0.70710677
f 9//8 8//8 14//8 13//8
f 19//9 20//9 22//9 23//9
f 20//6 9//6 13//6 22//6
g wall_2_11
usemtl wall_1_2
v 3836.0217 250.0 3114.4858
vn 0.0 0.0 1.0
f 8//8 12//8 17//8 14//8
f 12//10 21//10 24//10 17//10
f 21//9 19//9 23//9 24//9
g wall_2_12
usemtl wall_1_2
f 13//1 14//1 23//1
f 13//1 23//1 22//1
g wall_2_13
usemtl wall_1_2
f 14//1 17//1 24//1
f 14//1 24//1 23//1
g wall_3_14
usemtl wall_1_2
v 3828.5217 0.0 2836.9858
v 3832.2717 0.0 2840.7358
f 26//3 19//3 20//3
f 26//3 20//3 25//3
g wall_3_15
usemtl wall_1_2
v 3836.0217 0.0 2844.4858
f 27//3 21//3 19//3
f 27//3 19//3 26//3
g wall_3_16
usemtl wall_1_2
v 3828.5217 250.0 2836.9858
v 3832.2717 250.0 2840.7358
vn -0.70710677 0.0 0.70710677
f 25//7 20//7 22//7 28//7
f 20//11 19//11 23//11 22//11
f 26//9 25//9 28//9 29//9
g wall_3_17
usemtl wall_1_2
v 3836.0217 250.0 2844.4858
f 19//11 21//11 24//11 23//11
f 21//5 27//5 30//5 24//5
f 27//9 26//9 29//9 30//9
g wall_3_18
usemtl wall_1_2
f 28//1 22//1 23//1
f 28//1 23//1 29//1
g wall_3_19
usemtl wall_1_2
f 29//1 23//1 24//1
f 29//1 24//1 30//1
g wall_4_20
usemtl wall_1_2
v 4332.2715 0.0 2840.7358
v 4328.5215 0.0 2836.9858
f 32//3 31//3 26//3
f 32//3 26//3 25//3
g wall_4_21
usemtl wall_1_2
v 4336.0215 0.0 2844.4858
f 31//3 33//3 27//3
f 31//3 27//3 26//3
g wall_4_22
usemtl wall_1_2
v 4328.5215 250.0 2836.9858
v 4332.2715 250.0 2840.7358
f 25//11 26//11 29//11 28//11
f 31//9 32//9 34//9 35//9
f 32//6 25//6 28//6 34//6
g wall_4_23
usemtl wall_1_2
v 4336.0215 250.0 2844.4858
f 26//11 27//11 30//11 29//11
f 27//10 33//10 36//10 30//10
f 33//9 31//9 35//9 36//9
g wall_4_24
usemtl wall_1_2
f 28//1 29//1 35//1
f 28//1 35//1 34//1
g wall_4_25
usemtl wall_1_2
f 29//1 30//1 36//1
f 29//1 36//1 35//1
g wall_5_26
usemtl wall_1_2
v 4332.2715 0.0 1350.7357
v 4328.5215 0.0 1354.4857
f 31//3 32//3 38//3
f 31//3 38//3 37//3
g wall_5_27
usemtl wall_1_2
v 4336.0215 0.0 1346.9857
f 33//3 31//3 37//3
f 33//3 37//3 39//3
g wall_5_28
usemtl wall_1_2
v 4328.5215 250.0 1354.4857
v 4332.2715 250.0 1350.7357
f 37//8 38//8 40//8 41//8
f 38//7 32//7 34//7 40//7
f 32//11 31//11 35//11 34//11
g wall_5_29
usemtl wall_1_2
v 4336.0215 250.0 1346.9857
f 39//8 37//8 41//8 42//8
f 31//11 33//11 36//11 35//11
f 33//5 39//5 42//5 36//5
g wall_5_30
usemtl wall_1_2
f 41//1 40//1 34//1
f 41//1 34//1 35//1
g wall_5_31
usemtl wall_1_2
f 42//1 41//1 35//1
f 42//1 35//1 36//1
g wall_6_32
usemtl wall_1_2
v 1782.2717 0.0 1350.736
v 1782.2717 0.0 1354.486
f 38//3 44//3 43//3
f 38//3 43//3 37//3
g wall_6_33
usemtl wall_1_2
v 1782.2717 0.0 1346.986
f 37//3 43//3 45//3
f 37//3 45//3 39//3
g wall_6_34
usemtl wall_1_2
v 1782.2717 250.0 1354.486
v 1782.2717 250.0 1350.736
vn 0.0000001 0.0 1.0
f 43//7 44//7 46//7 47//7
f 44//12 38//12 40//12 46//12
f 38//4 37//4 41//4 40//4
g wall_6_35
usemtl wall_1_2
v 1782.2717 250.0 1346.986
vn -0.0000001 0.0 -1.0
f 39//13 45//13 48//13 42//13
f 45//7 43//7 47//7 48//7
f 37//4 39//4 42//4 41//4
g wall_6_36
usemtl wall_1_2
f 41//1 47//1 46//1
f 41//1 46//1 40//1
g wall_6_37
usemtl wall_1_2
f 42//1 48//1 47//1
f 42//1 47//1 41//1
g wall_7_38
usemtl wall_1_2
v 1541.4373 0.0 1105.593
v 1541.4373 0.0 3565.593
v 1545.1873 0.0 3569.343
v 1545.1873 0.0 1105.593
f 52//3 51//3 50//3
f 52//3 50//3 49//3
g wall_7_39
usemtl wall_1_2
v 1537.6873 0.0 1105.593
v 1537.6873 0.0 3561.843
f 49//3 50//3 54//3
f 49//3 54//3 53//3
g wall_7_40
usemtl wall_1_2
v 1545.1873 250.0 3569.343
v 1541.4373 250.0 3565.593
v 1545.1873 250.0 1105.593
v 1541.4373 250.0 1105.593
f 50//11 51//11 55//11 56//11
f 51//5 52//5 57//5 55//5
f 52//6 49//6 58//6 57//6
g wall_7_41
usemtl wall_1_2
v 1537.6873 250.0 3561.843
v 1537.6873 250.0 1105.593
f 53//7 54//7 59//7 60//7
f 54//11 50//11 56//11 59//11
f 49//6 53//6 60//6 58//6
g wall_7_42
usemtl wall_1_2
f 58//1 56//1 55//1
f 58//1 55//1 57//1
g wall_7_43
usemtl wall_1_2
f 60//1 59//1 56//1
f 60//1 56//1 58//1
g wall_8_44
usemtl wall_1_2
v 551.43726 0.0 3565.593
v 555.18726 0.0 3569.343
f 50//3 51//3 62//3
f 50//3 62//3 61//3
g wall_8_45
usemtl wall_1_2
v 547.68726 0.0 3561.843
f 54//3 50//3 61//3
f 54//3 61//3 63//3
g wall_8_46
usemtl wall_1_2
v 555.18726 250.0 3569.343
v 551.43726 250.0 3565.593
f 61//11 62//11 64//11 65//11
f 62//10 51//10 55//10 64//10
f 51//9 50//9 56//9 55//9
g wall_8_47
usemtl wall_1_2
v 547.68726 250.0 3561.843
f 63//11 61//11 65//11 66//11
f 50//9 54//9 59//9 56//9
f 54//6 63//6 66//6 59//6
g wall_8_48
usemtl wall_1_2
f 65//1 64//1 55//1
f 65//1 55//1 56//1
g wall_8_49
usemtl wall_1_2
f 66//1 65//1 56//1
f 66//1 56//1 59//1
g wall_9_50
usemtl wall_1_2
v 551.43726 0.0 4575.593
v 555.18726 0.0 4571.843
f 62//3 68//3 67//3
f 62//3 67//3 61//3
g wall_9_51
usemtl wall_1_2
f 61//3 67//3 6//3
f 61//3 6//3 63//3
g wall_9_52
usemtl wall_1_2
v 555.18726 250.0 4571.843
v 551.43726 250.0 4575.593
f 67//4 68//4 69//4 70//4
f 68//5 62//5 64//5 69//5
f 62//9 61//9 65//9 64//9
g wall_9_53
usemtl wall_1_2
v 547.68726 250.0 4579.343
f 63//7 6//7 71//7 66//7
f 6//4 67//4 70//4 71//4
f 61//9 63//9 66//9 65//9
g wall_9_54
usemtl wall_1_2
f 65//1 70//1 69//1
f 65//1 69//1 64//1
g wall_9_55
usemtl wall_1_2
f 66//1 71//1 70//1
f 66//1 70//1 65//1
g wall_10_56
usemtl wall_1_2
v 1541.4373 0.0 4575.593
v 1537.6873 0.0 4571.843
f 73//3 72//3 67//3
f 73//3 67//3 68//3
g wall_10_57
usemtl wall_1_2
v 1545.1873 0.0 4579.343
f 72//3 74//3 6//3
f 72//3 6//3 67//3
g wall_10_58
usemtl wall_1_2
v 1537.6873 250.0 4571.843
v 1541.4373 250.0 4575.593
f 68//8 67//8 70//8 69//8
f 72//9 73//9 75//9 76//9
f 73//6 68//6 69//6 75//6
g wall_10_59
usemtl wall_1_2
v 1545.1873 250.0 4579.343
f 67//8 6//8 71//8 70//8
f 6//10 74//10 77//10 71//10
f 74//9 72//9 76//9 77//9
g wall_10_60
usemtl wall_1_2
f 69//1 70//1 76//1
f 69//1 76//1 75//1
g wall_10_61
usemtl wall_1_2
f 70//1 71//1 77//1
f 70//1 77//1 76//1
g wall_11_62
usemtl wall_1_2
v 1537.6873 0.0 3671.8428
v 1541.4373 0.0 3675.5928
f 79//3 72//3 73//3
f 79//3 73//3 78//3
g wall_11_63
usemtl wall_1_2
v 1545.1873 0.0 3679.3428
f 80//3 74//3 72//3
f 80//3 72//3 79//3
g wall_11_64
usemtl wall_1_2
v 1537.6873 250.0 3671.8428
v 1541.4373 250.0 3675.5928
f 78//7 73//7 75//7 81//7
f 73//11 72//11 76//11 75//11
f 79//9 78//9 81//9 82//9
g wall_11_65
usemtl wall_1_2
v 1545.1873 250.0 3679.3428
f 72//11 74//11 77//11 76//11
f 74//5 80//5 83//5 77//5
f 80//9 79//9 82//9 83//9
g wall_11_66
usemtl wall_1_2
f 81//1 75//1 76//1
f 81//1 76//1 82//1
g wall_11_67
usemtl wall_1_2
f 82//1 76//1 77//1
f 82//1 77//1 83//1
g wall_12_68
usemtl wall_1_2
v 4551.4375 0.0 3675.5928
v 4555.1875 0.0 3671.8428
f 85//3 84//3 79//3
f 85//3 79//3 78//3
g wall_12_69
usemtl wall_1_2
v 4547.6875 0.0 3679.3428
f 84//3 86//3 80//3
f 84//3 80//3 79//3
g wall_12_70
usemtl wall_1_2
v 4555.1875 250.0 3671.8428
v 4551.4375 250.0 3675.5928
f 78//11 79//11 82//11 81//11
f 84//4 85//4 87//4 88//4
f 85//6 78//6 81//6 87//6
g wall_12_71
usemtl wall_1_2
v 4547.6875 250.0 3679.3428
f 79//11 80//11 83//11 82//11
f 80//10 86//10 89//10 83//10
f 86//4 84//4 88//4 89//4
g wall_12_72
usemtl wall_1_2
f 81//1 82//1 88//1
f 81//1 88//1 87//1
g wall_12_73
usemtl wall_1_2
f 82//1 83//1 89//1
f 82//1 89//1 88//1
g wall_13_74
usemtl wall_1_2
v 4551.4375 0.0 4575.593
v 4555.1875 0.0 4571.843
f 91//3 90//3 84//3
f 91//3 84//3 85//3
g wall_13_75
usemtl wall_1_2
v 4547.6875 0.0 4579.343
f 90//3 92//3 86//3
f 90//3 86//3 84//3
g wall_13_76
usemtl wall_1_2
v 4555.1875 250.0 4571.843
v 4551.4375 250.0 4575.593
f 85//8 84//8 88//8 87//8
f 90//4 91//4 93//4 94//4
f 91//5 85//5 87//5 93//5
g wall_13_77
usemtl wall_1_2
v 4547.6875 250.0 4579.343
f 84//8 86//8 89//8 88//8
f 86//7 92//7 95//7 89//7
f 92//4 90//4 94//4 95//4
g wall_13_78
usemtl wall_1_2
f 87//1 88//1 94//1
f 87//1 94//1 93//1
g wall_13_79
usemtl wall_1_2
f 88//1 89//1 95//1
f 88//1 95//1 94//1
g wall_14_80
usemtl wall_1_2
v 5561.4375 0.0 4575.593
v 5557.6875 0.0 4571.843
f 97//3 96//3 90//3
f 97//3 90//3 91//3
g wall_14_81
usemtl wall_1_2
f 96//3 3//3 92//3
f 96//3 92//3 90//3
g wall_14_82
usemtl wall_1_2
v 5557.6875 250.0 4571.843
v 5561.4375 250.0 4575.593
f 91//8 90//8 94//8 93//8
f 96//9 97//9 98//9 99//9
f 97//6 91//6 93//6 98//6
g wall_14_83
usemtl wall_1_2
v 5565.1875 250.0 4579.343
f 90//8 92//8 95//8 94//8
f 92//10 3//10 100//10 95//10
f 3//9 96//9 99//9 100//9
g wall_14_84
usemtl wall_1_2
f 93//1 94//1 99//1
f 93//1 99//1 98//1
g wall_14_85
usemtl wall_1_2
f 94//1 95//1 100//1
f 94//1 100//1 99//1
g wall_15_86
usemtl wall_1_2
v 5561.4375 0.0 3565.593
v 5557.6875 0.0 3569.343
f 96//3 97//3 102//3
f 96//3 102//3 101//3
g wall_15_87
usemtl wall_1_2
v 5565.1875 0.0 3561.843
f 3//3 96//3 101//3
f 3//3 101//3 103//3
g wall_15_88
usemtl wall_1_2
v 5557.6875 250.0 3569.343
v 5561.4375 250.0 3565.593
f 101//8 102//8 104//8 105//8
f 102//7 97//7 98//7 104//7
f 97//11 96//11 99//11 98//11
g wall_15_89
usemtl wall_1_2
v 5565.1875 250.0 3561.843
f 103//8 101//8 105//8 106//8
f 96//11 3//11 100//11 99//11
f 3//5 103//5 106//5 100//5
g wall_15_90
usemtl wall_1_2
f 105//1 104//1 98//1
f 105//1 98//1 99//1
g wall_15_91
usemtl wall_1_2
f 106//1 105//1 99//1
f 106//1 99//1 100//1
g wall_16_92
usemtl wall_1_2
v 4551.4375 0.0 3565.593
v 4551.4375 0.0 3569.343
f 101//3 102//3 108//3
f 101//3 108//3 107//3
g wall_16_93
usemtl wall_1_2
v 4551.4375 0.0 3561.843
f 103//3 101//3 107//3
f 103//3 107//3 109//3
g wall_16_94
usemtl wall_1_2
v 4551.4375 250.0 3569.343
v 4551.4375 250.0 3565.593
f 107//7 108//7 110//7 111//7
f 108//10 102//10 104//10 110//10
f 102//4 101//4 105//4 104//4
g wall_16_95
usemtl wall_1_2
v 4551.4375 250.0 3561.843
f 109//7 107//7 111//7 112//7
f 101//4 103//4 106//4 105//4
f 103//6 109//6 112//6 106//6
g wall_16_96
usemtl wall_1_2
f 111//1 110//1 104//1
f 111//1 104//1 105//1
g wall_16_97
usemtl wall_1_2
f 112//1 111//1 105//1
f 112//1 105//1 106//1
g wall_17_98
usemtl wall_1_2
v 5561.4375 0.0 2625.593
v 5557.6875 0.0 2629.343
v 5557.6875 0.0 3565.593
f 101//3 115//3 114//3
f 101//3 114//3 113//3
g wall_17_99
usemtl wall_1_2
v 5565.1875 0.0 2621.843
v 5565.1875 0.0 3565.593
f 117//3 101//3 113//3
f 117//3 113//3 116//3
g wall_17_100
usemtl wall_1_2
v 5557.6875 250.0 2629.343
v 5561.4375 250.0 2625.593
v 5557.6875 250.0 3565.593
f 113//8 114//8 118//8 119//8
f 114//7 115//7 120//7 118//7
f 115//10 101//10 105//10 120//10
g wall_17_101
usemtl wall_1_2
v 5565.1875 250.0 2621.843
v 5565.1875 250.0 3565.593
f 116//8 113//8 119//8 121//8
f 101//10 117//10 122//10 105//10
f 117//5 116//5 121//5 122//5
g wall_17_102
usemtl wall_1_2
f 119//1 118//1 120//1
f 119//1 120//1 105//1
g wall_17_103
usemtl wall_1_2
f 121//1 119//1 105//1
f 121//1 105//1 122//1
g wall_18_104
usemtl wall_1_2
v 4551.4375 0.0 2625.593
v 4551.4375 0.0 2629.343
f 113//3 114//3 124//3
f 113//3 124//3 123//3
g wall_18_105
usemtl wall_1_2
v 4551.4375 0.0 2621.843
f 116//3 113//3 123//3
f 116//3 123//3 125//3
g wall_18_106
usemtl wall_1_2
v 4551.4375 250.0 2629.343
v 4551.4375 250.0 2625.593
f 123//7 124//7 126//7 127//7
f 124//10 114//10 118//10 126//10
f 114//4 113//4 119//4 118//4
g wall_18_107
usemtl wall_1_2
v 4551.4375 250.0 2621.843
f 125//7 123//7 127//7 128//7
f 113//4 116//4 121//4 119//4
f 116//6 125//6 128//6 121//6
g wall_18_108
usemtl wall_1_2
f 127//1 126//1 118//1
f 127//1 118//1 119//1
g wall_18_109
usemtl wall_1_2
f 128//1 127//1 119//1
f 128//1 119//1 121//1
g wall_19_110
usemtl wall_1_2
v 5561.4375 0.0 1670.8691
v 5557.6875 0.0 1674.6191
v 5557.6875 0.0 2590.8691
v 5561.4375 0.0 2590.8691
f 132//3 131//3 130//3
f 132//3 130//3 129//3
g wall_19_111
usemtl wall_1_2
v 5565.1875 0.0 1667.1191
v 5565.1875 0.0 2590.8691
f 134//3 132//3 129//3
f 134//3 129//3 133//3
g wall_19_112
usemtl wall_1_2
v 5557.6875 250.0 1674.6191
v 5561.4375 250.0 1670.8691
v 5557.6875 250.0 2590.8691
v 5561.4375 250.0 2590.8691
f 129//8 130//8 135//8 136//8
f 130//7 131//7 137//7 135//7
f 131//10 132//10 138//10 137//10
g wall_19_113
usemtl wall_1_2
v 5565.1875 250.0 1667.1191
v 5565.1875 250.0 2590.8691
f 133//8 129//8 136//8 139//8
f 132//10 134//10 140//10 138//10
f 134//5 133//5 139//5 140//5
g wall_19_114
usemtl wall_1_2
f 136//1 135//1 137//1
f 136//1 137//1 138//1
g wall_19_115
usemtl wall_1_2
f 139//1 136//1 138//1
f 139//1 138//1 140//1
g wall_20_116
usemtl wall_1_2
v 4551.4375 0.0 1670.869
v 4555.1875 0.0 1674.619
f 129//3 130//3 142//3
f 129//3 142//3 141//3
g wall_20_117
usemtl wall_1_2
v 4547.6875 0.0 1667.119
f 133//3 129//3 141//3
f 133//3 141//3 143//3
g wall_20_118
usemtl wall_1_2
v 4555.1875 250.0 1674.619
v 4551.4375 250.0 1670.869
vn -0.0000001 0.0 1.0
f 141//11 142//11 144//11 145//11
f 142//14 130//14 135//14 144//14
f 130//4 129//4 136//4 135//4
g wall_20_119
usemtl wall_1_2
v 4547.6875 250.0 1667.119
vn 0.0000001 0.0 -1.0
f 143//11 141//11 145//11 146//11
f 129//4 133//4 139//4 136//4
f 133//15 143//15 146//15 139//15
g wall_20_120
usemtl wall_1_2
f 145//1 144//1 135//1
f 145//1 135//1 136//1
g wall_20_121
usemtl wall_1_2
f 146//1 145//1 136//1
f 146//1 136//1 139//1
g wall_21_122
usemtl wall_1_2
v 4551.4375 0.0 2480.8691
v 4555.1875 0.0 2480.8691
f 142//3 148//3 147//3
f 142//3 147//3 141//3
g wall_21_123
usemtl wall_1_2
v 4547.6875 0.0 2480.8691
f 141//3 147//3 149//3
f 141//3 149//3 143//3
g wall_21_124
usemtl wall_1_2
v 4555.1875 250.0 2480.8691
v 4551.4375 250.0 2480.8691
f 147//10 148//10 150//10 151//10
f 148//5 142//5 144//5 150//5
f 142//9 141//9 145//9 144//9
g wall_21_125
usemtl wall_1_2
v 4547.6875 250.0 2480.8691
f 143//7 149//7 152//7 146//7
f 149//10 147//10 151//10 152//10
f 141//9 143//9 146//9 145//9
g wall_21_126
usemtl wall_1_2
f 145//1 151//1 150//1
f 145//1 150//1 144//1
g wall_21_127
usemtl wall_1_2
f 146//1 152//1 151//1
f 146//1 151//1 145//1
g wall_22_128
usemtl wall_1_2
v 4551.4375 0.0 1105.593
v 4547.6875 0.0 1109.343
f 147//3 149//3 154//3
f 147//3 154//3 153//3
g wall_22_129
usemtl wall_1_2
v 4555.1875 0.0 1101.843
f 148//3 147//3 153//3
f 148//3 153//3 155//3
g wall_22_130
usemtl wall_1_2
v 4547.6875 250.0 1109.343
v 4551.4375 250.0 1105.593
f 153//8 154//8 156//8 157//8
f 154//7 149//7 152//7 156//7
f 149//10 147//10 151//10 152//10
g wall_22_131
usemtl wall_1_2
v 4555.1875 250.0 1101.843
f 155//8 153//8 157//8 158//8
f 147//10 148//10 150//10 151//10
f 148//5 155//5 158//5 150//5
g wall_22_132
usemtl wall_1_2
f 157//1 156//1 152//1
f 157//1 152//1 151//1
g wall_22_133
usemtl wall_1_2
f 158//1 157//1 151//1
f 158//1 151//1 150//1
g wall_23_134
usemtl wall_1_2
v 3832.2717 0.0 1105.5929
v 3832.2717 0.0 1109.3429
f 153//3 154//3 160//3
f 153//3 160//3 159//3
g wall_23_135
usemtl wall_1_2
v 3832.2717 0.0 1101.8429
f 155//3 153//3 159//3
f 155//3 159//3 161//3
g wall_23_136
usemtl wall_1_2
v 3832.2717 250.0 1109.3429
v 3832.2717 250.0 1105.5929
vn -0.0000002 0.0 1.0
f 159//7 160//7 162//7 163//7
f 160//16 154//16 156//16 162//16
f 154//4 153//4 157//4 156//4
g wall_23_137
usemtl wall_1_2
v 3832.2717 250.0 1101.8429
vn 0.0000002 0.0 -1.0
f 161//7 159//7 163//7 164//7
f 153//4 155//4 158//4 157//4
f 155//17 161//17 164//17 158//17
g wall_23_138
usemtl wall_1_2
f 163//1 162//1 156//1
f 163//1 156//1 157//1
g wall_23_139
usemtl wall_1_2
f 164//1 163//1 157//1
f 164//1 157//1 158//1
g wall_24_140
usemtl wall_1_2
v 4622.2715 0.0 1105.5929
v 4618.5215 0.0 1101.8429
f 166//3 165//3 159//3
f 166//3 159//3 161//3
g wall_24_141
usemtl wall_1_2
v 4626.0215 0.0 1109.3429
f 165//3 167//3 160//3
f 165//3 160//3 159//3
g wall_24_142
usemtl wall_1_2
v 4618.5215 250.0 1101.8429
v 4622.2715 250.0 1105.5929
f 161//7 159//7 163//7 164//7
f 165//9 166//9 168//9 169//9
f 166//6 161//6 164//6 168//6
g wall_24_143
usemtl wall_1_2
v 4626.0215 250.0 1109.3429
f 159//7 160//7 162//7 163//7
f 160//10 167//10 170//10 162//10
f 167//9 165//9 169//9 170//9
g wall_24_144
usemtl wall_1_2
f 164//1 163//1 169//1
f 164//1 169//1 168//1
g wall_24_145
usemtl wall_1_2
f 163//1 162//1 170//1
f 163//1 170//1 169//1
g wall_25_146
usemtl wall_1_2
v 4622.2715 0.0 165.5929
v 4618.5215 0.0 169.3429
f 165//3 166//3 172//3
f 165//3 172//3 171//3
g wall_25_147
usemtl wall_1_2
v 4626.0215 0.0 161.8429
f 167//3 165//3 171//3
f 167//3 171//3 173//3
g wall_25_148
usemtl wall_1_2
v 4618.5215 250.0 169.3429
v 4622.2715 250.0 165.5929
f 171//8 172//8 174//8 175//8
f 172//7 166//7 168//7 174//7
f 166//11 165//11 169//11 168//11
g wall_25_149
usemtl wall_1_2
v 4626.0215 250.0 161.8429
f 173//8 171//8 175//8 176//8
f 165//11 167//11 170//11 169//11
f 167//5 173//5 176//5 170//5
g wall_25_150
usemtl wall_1_2
f 175//1 174//1 168//1
f 175//1 168//1 169//1
g wall_25_151
usemtl wall_1_2
f 176//1 175//1 169//1
f 176//1 169//1 170//1
g wall_26_152
usemtl wall_1_2
v 3682.2715 0.0 165.5929
v 3686.0215 0.0 169.3429
f 171//3 172//3 178//3
f 171//3 178//3 177//3
g wall_26_153
usemtl wall_1_2
v 3678.5215 0.0 161.8429
f 173//3 171//3 177//3
f 173//3 177//3 179//3
g wall_26_154
usemtl wall_1_2
v 3686.0215 250.0 169.3429
v 3682.2715 250.0 165.5929
f 177//11 178//11 180//11 181//11
f 178//10 172//10 174//10 180//10
f 172//4 171//4 175//4 174//4
g wall_26_155
usemtl wall_1_2
v 3678.5215 250.0 161.8429
f 179//11 177//11 181//11 182//11
f 171//4 173//4 176//4 175//4
f 173//6 179//6 182//6 176//6
g wall_26_156
usemtl wall_1_2
f 181//1 180//1 174//1
f 181//1 174//1 175//1
g wall_26_157
usemtl wall_1_2
f 182//1 181//1 175//1
f 182//1 175//1 176//1
g wall_27_158
usemtl wall_1_2
v 3682.2715 0.0 1105.5929
v 3686.0215 0.0 1109.3429
f 178//3 184//3 183//3
f 178//3 183//3 177//3
g wall_27_159
usemtl wall_1_2
v 3678.5215 0.0 1101.8429
f 177//3 183//3 185//3
f 177//3 185//3 179//3
g wall_27_160
usemtl wall_1_2
v 3686.0215 250.0 1109.3429
v 3682.2715 250.0 1105.5929
f 183//11 184//11 186//11 187//11
f 184//5 178//5 180//5 186//5
f 178//9 177//9 181//9 180//9
g wall_27_161
usemtl wall_1_2
v 3678.5215 250.0 1101.8429
f 179//7 185//7 188//7 182//7
f 185//11 183//11 187//11 188//11
f 177//9 179//9 182//9 181//9
g wall_27_162
usemtl wall_1_2
f 181//1 187//1 186//1
f 181//1 186//1 180//1
g wall_27_163
usemtl wall_1_2
f 182//1 188//1 187//1
f 182//1 187//1 181//1
g wall_28_164
usemtl wall_1_2
v 3052.2715 0.0 1105.5929
v 3052.2715 0.0 1109.3429
f 183//3 184//3 190//3
f 183//3 190//3 189//3
g wall_28_165
usemtl wall_1_2
v 3052.2715 0.0 1101.8429
f 185//3 183//3 189//3
f 185//3 189//3 191//3
g wall_28_166
usemtl wall_1_2
v 3052.2715 250.0 1109.3429
v 3052.2715 250.0 1105.5929
f 189//7 190//7 192//7 193//7
f 190//10 184//10 186//10 192//10
f 184//9 183//9 187//9 186//9
g wall_28_167
usemtl wall_1_2
v 3052.2715 250.0 1101.8429
f 191//7 189//7 193//7 194//7
f 183//9 185//9 188//9 187//9
f 185//6 191//6 194//6 188//6
g wall_28_168
usemtl wall_1_2
f 193//1 192//1 186//1
f 193//1 186//1 187//1
g wall_28_169
usemtl wall_1_2
f 194//1 193//1 187//1
f 194//1 187//1 188//1
g wall_29_170
usemtl wall_1_2
v 2742.2715 0.0 165.5929
v 2746.0215 0.0 169.3429
v 3682.2715 0.0 169.3429
f 177//3 197//3 196//3
f 177//3 196//3 195//3
g wall_29_171
usemtl wall_1_2
v 2738.5215 0.0 161.8429
v 3682.2715 0.0 161.8429
f 199//3 177//3 195//3
f 199//3 195//3 198//3
g wall_29_172
usemtl wall_1_2
v 2746.0215 250.0 169.3429
v 2742.2715 250.0 165.5929
v 3682.2715 250.0 169.3429
f 195//11 196//11 200//11 201//11
f 196//10 197//10 202//10 200//10
f 197//5 177//5 181//5 202//5
g wall_29_173
usemtl wall_1_2
v 2738.5215 250.0 161.8429
v 3682.2715 250.0 161.8429
f 198//11 195//11 201//11 203//11
f 177//5 199//5 204//5 181//5
f 199//6 198//6 203//6 204//6
g wall_29_174
usemtl wall_1_2
f 201//1 200//1 202//1
f 201//1 202//1 181//1
g wall_29_175
usemtl wall_1_2
f 203//1 201//1 181//1
f 203//1 181//1 204//1
g wall_30_176
usemtl wall_1_2
v 2742.2715 0.0 1105.5929
v 2746.0215 0.0 1101.8429
f 196//3 206//3 205//3
f 196//3 205//3 195//3
g wall_30_177
usemtl wall_1_2
v 2738.5215 0.0 1109.3429
f 195//3 205//3 207//3
f 195//3 207//3 198//3
g wall_30_178
usemtl wall_1_2
v 2746.0215 250.0 1101.8429
v 2742.2715 250.0 1105.5929
f 205//4 206//4 208//4 209//4
f 206//5 196//5 200//5 208//5
f 196//9 195//9 201//9 200//9
g wall_30_179
usemtl wall_1_2
v 2738.5215 250.0 1109.3429
f 198//7 207//7 210//7 203//7
f 207//4 205//4 209//4 210//4
f 195//9 198//9 203//9 201//9
g wall_30_180
usemtl wall_1_2
f 201//1 209//1 208//1
f 201//1 208//1 200//1
g wall_30_181
usemtl wall_1_2
f 203//1 210//1 209//1
f 203//1 209//1 201//1
g wall_31_182
usemtl wall_1_2
v 2942.2715 0.0 1105.5929
v 2942.2715 0.0 1101.8429
f 212//3 211//3 205//3
f 212//3 205//3 206//3
g wall_31_183
usemtl wall_1_2
v 2942.2715 0.0 1109.3429
f 211//3 213//3 207//3
f 211//3 207//3 205//3
g wall_31_184
usemtl wall_1_2
v 2942.2715 250.0 1101.8429
v 2942.2715 250.0 1105.5929
f 206//8 205//8 209//8 208//8
f 211//5 212//5 214//5 215//5
f 212//6 206//6 208//6 214//6
g wall_31_185
usemtl wall_1_2
v 2942.2715 250.0 1109.3429
f 205//8 207//8 210//8 209//8
f 207//10 213//10 216//10 210//10
f 213//5 211//5 215//5 216//5
g wall_31_186
usemtl wall_1_2
f 208//1 209//1 215//1
f 208//1 215//1 214//1
g wall_31_187
usemtl wall_1_2
f 209//1 210//1 216//1
f 209//1 216//1 215//1
g wall_32_188
usemtl wall_1_2
v 1952.2715 0.0 1105.5929
v 1952.2715 0.0 1109.3429
f 211//3 213//3 218//3
f 211//3 218//3 217//3
g wall_32_189
usemtl wall_1_2
v 1952.2715 0.0 1101.8429
f 212//3 211//3 217//3
f 212//3 217//3 219//3
g wall_32_190
usemtl wall_1_2
v 1952.2715 250.0 1109.3429
v 1952.2715 250.0 1105.5929
f 217//7 218//7 220//7 221//7
f 218//10 213//10 216//10 220//10
f 213//5 211//5 215//5 216//5
g wall_32_191
usemtl wall_1_2
v 1952.2715 250.0 1101.8429
f 219//7 217//7 221//7 222//7
f 211//5 212//5 214//5 215//5
f 212//6 219//6 222//6 214//6
g wall_32_192
usemtl wall_1_2
f 221//1 220//1 216//1
f 221//1 216//1 215//1
g wall_32_193
usemtl wall_1_2
f 222//1 221//1 215//1
f 222//1 215//1 214//1
g wall_33_194
usemtl wall_1_2
v 1812.2715 0.0 165.5929
v 1816.0215 0.0 169.3429
v 2742.2715 0.0 169.3429
f 195//3 225//3 224//3
f 195//3 224//3 223//3
g wall_33_195
usemtl wall_1_2
v 1808.5215 0.0 161.8429
v 2742.2715 0.0 161.8429
f 227//3 195//3 223//3
f 227//3 223//3 226//3
g wall_33_196
usemtl wall_1_2
v 1816.0215 250.0 169.3429
v 1812.2715 250.0 165.5929
v 2742.2715 250.0 169.3429
f 223//11 224//11 228//11 229//11
f 224//10 225//10 230//10 228//10
f 225//5 195//5 201//5 230//5
g wall_33_197
usemtl wall_1_2
v 1808.5215 250.0 161.8429
v 2742.2715 250.0 161.8429
f 226//11 223//11 229//11 231//11
f 195//5 227//5 232//5 201//5
f 227//6 226//6 231//6 232//6
g wall_33_198
usemtl wall_1_2
f 229//1 228//1 230//1
f 229//1 230//1 201//1
g wall_33_199
usemtl wall_1_2
f 231//1 229//1 201//1
f 231//1 201//1 232//1
g wall_34_200
usemtl wall_1_2
v 1812.2715 0.0 1105.5929
v 1816.0215 0.0 1109.3429
f 224//3 234//3 233//3
f 224//3 233//3 223//3
g wall_34_201
usemtl wall_1_2
v 1808.5215 0.0 1101.8429
f 223//3 233//3 235//3
f 223//3 235//3 226//3
g wall_34_202
usemtl wall_1_2
v 1816.0215 250.0 1109.3429
v 1812.2715 250.0 1105.5929
f 233//11 234//11 236//11 237//11
f 234//5 224//5 228//5 236//5
f 224//9 223//9 229//9 228//9
g wall_34_203
usemtl wall_1_2
v 1808.5215 250.0 1101.8429
f 226//7 235//7 238//7 231//7
f 235//11 233//11 237//11 238//11
f 223//9 226//9 231//9 229//9
g wall_34_204
usemtl wall_1_2
f 229//1 237//1 236//1
f 229//1 236//1 228//1
g wall_34_205
usemtl wall_1_2
f 231//1 238//1 237//1
f 231//1 237//1 229//1
g wall_35_206
usemtl wall_1_2
v 1541.4373 0.0 1105.5929
v 1541.4373 0.0 1109.3429
f 233//3 234//3 240//3
f 233//3 240//3 239//3
g wall_35_207
usemtl wall_1_2
v 1541.4373 0.0 1101.8429
f 235//3 233//3 239//3
f 235//3 239//3 241//3
g wall_35_208
usemtl wall_1_2
v 1541.4373 250.0 1109.3429
v 1541.4373 250.0 1105.5929
f 239//7 240//7 242//7 243//7
f 240//10 234//10 236//10 242//10
f 234//9 233//9 237//9 236//9
g wall_35_209
usemtl wall_1_2
v 1541.4373 250.0 1101.8429
f 241//7 239//7 243//7 244//7
f 233//9 235//9 238//9 237//9
f 235//6 241//6 244//6 238//6
g wall_35_210
usemtl wall_1_2
f 243//1 242//1 236//1
f 243//1 236//1 237//1
g wall_35_211
usemtl wall_1_2
f 244//1 243//1 237//1
f 244//1 237//1 238//1
